<svg width="48" height="30" viewBox="0 0 48 30" fill="none" xmlns="http://www.w3.org/2000/svg">
<path d="M38.3995 19.7822L47.2988 19.7822L37.905 0.500249L29.0057 0.500248L38.3995 19.7822Z" fill="#0B92D2"/>
<path d="M20.1063 24.7263L29.0057 24.7263L18.9527 0.500243L10.0533 0.500242L20.1063 24.7263Z" fill="#137BC0"/>
<path d="M29.0057 24.7263L20.1063 24.7263L29.0057 0.500245L37.905 0.500246L29.0057 24.7263Z" fill="#0E763F"/>
<path fill-rule="evenodd" clip-rule="evenodd" d="M34.0794 10.9147L37.9051 0.50028L29.0057 0.50028L34.0794 10.9147Z" fill="#FFD100"/>
<path fill-rule="evenodd" clip-rule="evenodd" d="M37.9051 0.50028L29.0057 0.50028L34.0794 10.9147L37.9051 0.50028Z" fill="#FFD100"/>
<path d="M8.89937 30L0 30L10.2178 0.500224L19.1172 0.500225L8.89937 30Z" fill="#E20613"/>
<path fill-rule="evenodd" clip-rule="evenodd" d="M14.9934 12.4058L19.0422 0.716586L18.9524 0.500121L10.053 0.50012L10.1428 0.716585L14.9934 12.4058Z" fill="#0E4B9C"/>
<path fill-rule="evenodd" clip-rule="evenodd" d="M10.2178 0.50012L10.1428 0.716585L14.9934 12.4058L19.0422 0.716586L19.1172 0.500121L10.2178 0.50012Z" fill="#0E4B9C"/>
</svg>
